<svg xmlns="http://www.w3.org/2000/svg" xmlns:xlink="http://www.w3.org/1999/xlink" width="455" zoomAndPan="magnify" viewBox="0 0 341.25 169.5" height="226" preserveAspectRatio="xMidYMid meet" version="1.0"><defs><g/><clipPath id="b7e493d9bb"><path d="M 0.128906 0 L 114.539062 0 L 114.539062 168.253906 L 0.128906 168.253906 Z M 0.128906 0 " clip-rule="nonzero"/></clipPath></defs><g clip-path="url(#b7e493d9bb)"><path fill="#f3ce18" d="M 82.140625 34.695312 C 69.730469 27.730469 57.113281 20.566406 44.9375 13.367188 L 33.835938 6.839844 L 10.15625 20.53125 L 27.109375 30.320312 L 60.847656 49.898438 L 61.050781 49.898438 L 81.503906 61.640625 L 87.828125 58.175781 L 88.027344 57.972656 L 105.21875 48.183594 Z M 112.820312 85.589844 L 87.589844 100.15625 L 83.015625 102.980469 L 82.816406 102.980469 L 78.238281 105.605469 L 70.402344 110.179688 L 70.199219 110.382812 L 67.140625 112.132812 C 67.140625 129.757812 67.140625 147.351562 67.140625 165.214844 C 67.140625 165.652344 66.9375 166.289062 66.703125 166.726562 C 65.828125 168.242188 63.875 168.679688 62.363281 167.804688 L 32.558594 150.613281 C 31.480469 150.175781 30.808594 149.101562 30.808594 147.789062 C 30.808594 141.699219 30.808594 135.613281 30.808594 129.523438 L 2.316406 112.972656 C 0.800781 112.097656 0.128906 110.148438 1.003906 108.632812 C 1.441406 108.195312 1.878906 107.757812 2.316406 107.320312 L 14.929688 100.15625 L 30.808594 91.007812 L 30.808594 58.175781 C 30.808594 57.535156 30.808594 57.097656 31.246094 56.425781 C 32.121094 54.910156 33.871094 54.472656 35.382812 55.347656 L 64.078125 71.863281 L 75.179688 65.339844 L 58.023438 55.550781 L 57.820312 55.347656 L 23.878906 35.769531 L 2.316406 23.359375 C 1.878906 23.15625 1.441406 22.71875 1.003906 22.046875 C 0.128906 20.734375 0.800781 18.78125 2.316406 17.90625 L 32.121094 0.550781 C 33.195312 -0.0898438 34.308594 -0.0898438 35.382812 0.550781 L 48.199219 7.949219 L 57.550781 13.398438 L 113.023438 45.359375 L 113.226562 45.359375 L 113.226562 45.558594 L 113.628906 45.558594 L 113.628906 45.761719 L 113.832031 45.761719 L 113.832031 45.964844 L 114.03125 45.964844 L 114.03125 46.367188 L 114.234375 46.367188 L 114.234375 46.769531 L 114.4375 46.769531 L 114.4375 47.375 L 114.636719 47.375 L 114.636719 82.5625 C 114.773438 84.042969 113.898438 85.152344 112.820312 85.589844 Z M 84.53125 94.707031 L 108.246094 81.015625 L 108.246094 53.597656 L 91.054688 63.386719 L 91.054688 63.589844 L 60.847656 81.015625 L 57.382812 82.964844 L 57.183594 83.167969 L 55.433594 84.246094 L 35.820312 95.582031 C 35.621094 95.582031 35.382812 95.582031 35.183594 95.78125 L 18.226562 105.570312 L 10.1875 110.148438 L 33.902344 123.835938 L 62.394531 107.523438 L 62.597656 107.523438 L 66.9375 104.898438 L 67.140625 104.695312 L 75.179688 100.121094 L 79.753906 97.5 L 79.957031 97.296875 Z M 60.847656 115.796875 L 46.921875 123.636719 L 37.132812 129.523438 C 37.132812 134.972656 37.132812 140.386719 37.132812 145.835938 L 60.847656 159.527344 C 60.847656 144.964844 60.847656 130.398438 60.847656 115.796875 Z M 57.789062 75.566406 L 37.132812 63.625 L 37.132812 87.339844 L 52.136719 78.625 L 53.886719 77.550781 L 54.085938 77.550781 Z M 57.789062 75.566406 " fill-opacity="1" fill-rule="nonzero"/></g><g fill="#f3ce18" fill-opacity="1"><g transform="translate(137.472783, 135.112699)"><g><path d="M -2.21875 -0.140625 L 7.390625 -41.828125 L 7.484375 -42.265625 L 15.046875 -42.265625 L 14.875 -41.53125 L 6.65625 -5.984375 L 14.6875 -5.984375 L 14.53125 -5.25 L 13.296875 0.140625 L 13.203125 0.59375 L -2.390625 0.59375 Z M -2.21875 -0.140625 "/></g></g></g><g fill="#f3ce18" fill-opacity="1"><g transform="translate(157.915703, 135.112699)"><g><path d="M -1.984375 -0.140625 L 7.640625 -41.828125 L 7.734375 -42.265625 L 15.28125 -42.265625 L 15.109375 -41.53125 L 5.5 0.140625 L 5.40625 0.59375 L -2.140625 0.59375 Z M -1.984375 -0.140625 "/></g></g></g><g fill="#f3ce18" fill-opacity="1"><g transform="translate(173.410204, 135.112699)"><g><path d="M -0.34375 -11.859375 L 0.5 -15.578125 L 0.59375 -16.03125 L 7.828125 -16.03125 L 7.65625 -15.296875 L 6.6875 -11.109375 C 6.175781 -8.878906 6.003906 -7.332031 6.171875 -6.46875 C 6.234375 -6.132812 6.363281 -5.894531 6.5625 -5.75 C 6.757812 -5.613281 7.066406 -5.546875 7.484375 -5.546875 C 8.367188 -5.546875 9.019531 -5.84375 9.4375 -6.4375 C 9.507812 -6.550781 9.582031 -6.675781 9.65625 -6.8125 C 9.738281 -6.957031 9.820312 -7.113281 9.90625 -7.28125 C 9.988281 -7.457031 10.0625 -7.644531 10.125 -7.84375 C 10.195312 -8.039062 10.269531 -8.253906 10.34375 -8.484375 C 10.414062 -8.710938 10.488281 -8.957031 10.5625 -9.21875 C 10.632812 -9.476562 10.703125 -9.753906 10.765625 -10.046875 C 11.140625 -11.703125 11.175781 -13.128906 10.875 -14.328125 C 10.5625 -15.554688 9.90625 -16.851562 8.90625 -18.21875 L 6.5625 -21.390625 C 5.425781 -22.953125 4.640625 -24.578125 4.203125 -26.265625 C 3.742188 -27.972656 3.773438 -29.929688 4.296875 -32.140625 C 4.484375 -33.003906 4.710938 -33.820312 4.984375 -34.59375 C 5.253906 -35.375 5.550781 -36.09375 5.875 -36.75 C 6.195312 -37.414062 6.550781 -38.03125 6.9375 -38.59375 C 7.320312 -39.15625 7.742188 -39.65625 8.203125 -40.09375 C 10.035156 -41.875 12.648438 -42.765625 16.046875 -42.765625 C 19.566406 -42.765625 21.71875 -41.660156 22.5 -39.453125 C 23.226562 -37.378906 23.144531 -34.421875 22.25 -30.578125 L 21.65625 -27.984375 L 21.5625 -27.546875 L 14.5 -27.546875 L 14.671875 -28.28125 L 15.359375 -31.265625 C 15.578125 -32.222656 15.722656 -33.050781 15.796875 -33.75 C 15.878906 -34.457031 15.890625 -34.992188 15.828125 -35.359375 C 15.773438 -35.660156 15.664062 -35.875 15.5 -36 C 15.34375 -36.125 15.082031 -36.1875 14.71875 -36.1875 C 13.894531 -36.1875 13.253906 -35.914062 12.796875 -35.375 C 12.710938 -35.300781 12.628906 -35.203125 12.546875 -35.078125 C 12.472656 -34.960938 12.398438 -34.84375 12.328125 -34.71875 C 12.265625 -34.59375 12.195312 -34.453125 12.125 -34.296875 C 12.050781 -34.148438 11.984375 -33.988281 11.921875 -33.8125 C 11.859375 -33.644531 11.796875 -33.460938 11.734375 -33.265625 C 11.679688 -33.078125 11.632812 -32.875 11.59375 -32.65625 C 11.300781 -31.4375 11.269531 -30.488281 11.5 -29.8125 C 11.75 -29.070312 12.285156 -28.109375 13.109375 -26.921875 L 15.703125 -23.203125 C 15.910156 -22.890625 16.113281 -22.570312 16.3125 -22.25 C 16.507812 -21.925781 16.691406 -21.601562 16.859375 -21.28125 C 17.035156 -20.957031 17.195312 -20.632812 17.34375 -20.3125 C 17.5 -19.988281 17.640625 -19.660156 17.765625 -19.328125 C 17.890625 -18.992188 18 -18.664062 18.09375 -18.34375 C 18.195312 -18.019531 18.285156 -17.691406 18.359375 -17.359375 C 18.835938 -15.347656 18.800781 -13.171875 18.25 -10.828125 C 17.789062 -8.835938 17.21875 -7.097656 16.53125 -5.609375 C 15.851562 -4.128906 15.054688 -2.898438 14.140625 -1.921875 C 12.273438 0.0664062 9.625 1.0625 6.1875 1.0625 C 2.632812 1.0625 0.410156 -0.0976562 -0.484375 -2.421875 C -1.335938 -4.609375 -1.289062 -7.753906 -0.34375 -11.859375 Z M -0.34375 -11.859375 "/></g></g></g><g fill="#f3ce18" fill-opacity="1"><g transform="translate(197.262563, 135.112699)"><g><path d="M -0.09375 -0.140625 L 8.109375 -35.59375 L 3.234375 -35.59375 L 3.390625 -36.328125 L 4.65625 -41.828125 L 4.75 -42.265625 L 21.84375 -42.265625 L 21.671875 -41.53125 L 20.421875 -36.046875 L 20.328125 -35.59375 L 15.640625 -35.59375 L 7.375 0.140625 L 7.28125 0.59375 L -0.25 0.59375 Z M -0.09375 -0.140625 "/></g></g></g><g fill="#f3ce18" fill-opacity="1"><g transform="translate(216.332237, 135.112699)"><g><path d="M -1.984375 -0.140625 L 7.640625 -41.828125 L 7.734375 -42.265625 L 15.28125 -42.265625 L 15.109375 -41.53125 L 5.5 0.140625 L 5.40625 0.59375 L -2.140625 0.59375 Z M -1.984375 -0.140625 "/></g></g></g><g fill="#f3ce18" fill-opacity="1"><g transform="translate(231.826736, 135.112699)"><g><path d="M -2.21875 -0.140625 L 7.390625 -41.828125 L 7.484375 -42.265625 L 13.453125 -42.265625 L 13.53125 -41.75 L 16.109375 -20.484375 L 17.609375 -28.15625 L 20.75 -41.828125 L 20.84375 -42.265625 L 27.765625 -42.265625 L 27.59375 -41.53125 L 17.984375 0.140625 L 17.890625 0.59375 L 12.390625 0.59375 L 12.328125 0.078125 L 9.671875 -22.09375 L 8.21875 -14.828125 L 4.765625 0.140625 L 4.671875 0.59375 L -2.390625 0.59375 Z M -2.21875 -0.140625 "/></g></g></g><g fill="#f3ce18" fill-opacity="1"><g transform="translate(259.562057, 135.112699)"><g><path d="M 6.0625 1.015625 C 3.195312 1.015625 1.210938 -0.128906 0.109375 -2.421875 C -0.929688 -4.597656 -0.941406 -7.90625 0.078125 -12.34375 L 4.25 -30.453125 C 4.6875 -32.410156 5.273438 -34.148438 6.015625 -35.671875 C 6.765625 -37.203125 7.660156 -38.492188 8.703125 -39.546875 C 10.785156 -41.679688 13.554688 -42.75 17.015625 -42.75 C 19.160156 -42.75 20.859375 -42.320312 22.109375 -41.46875 C 23.367188 -40.613281 24.109375 -39.34375 24.328125 -37.65625 C 24.566406 -35.757812 24.316406 -33.1875 23.578125 -29.9375 L 22.890625 -26.96875 L 22.796875 -26.53125 L 15.65625 -26.53125 L 15.828125 -27.25 L 16.828125 -31.609375 C 17.234375 -33.410156 17.34375 -34.648438 17.15625 -35.328125 C 17.007812 -35.816406 16.523438 -36.0625 15.703125 -36.0625 C 14.804688 -36.0625 14.082031 -35.6875 13.53125 -34.9375 C 12.894531 -34.0625 12.316406 -32.488281 11.796875 -30.21875 L 7.609375 -12.15625 C 6.992188 -9.5 6.765625 -7.671875 6.921875 -6.671875 C 6.984375 -6.265625 7.117188 -5.976562 7.328125 -5.8125 C 7.546875 -5.644531 7.894531 -5.5625 8.375 -5.5625 C 8.695312 -5.5625 9 -5.613281 9.28125 -5.71875 C 9.570312 -5.820312 9.84375 -5.976562 10.09375 -6.1875 C 10.34375 -6.40625 10.585938 -6.6875 10.828125 -7.03125 C 11.554688 -8.125 12.226562 -10.003906 12.84375 -12.671875 L 13.953125 -17.546875 L 10.765625 -17.546875 L 10.921875 -18.28125 L 11.984375 -22.90625 L 12.078125 -23.34375 L 22.03125 -23.34375 L 21.859375 -22.609375 L 16.625 0.140625 L 16.53125 0.59375 L 12.625 0.59375 L 12.625 0 L 12.609375 -2.0625 C 12.035156 -1.363281 11.347656 -0.769531 10.546875 -0.28125 C 9.140625 0.582031 7.644531 1.015625 6.0625 1.015625 Z M 6.0625 1.015625 "/></g></g></g><g fill="#f3ce18" fill-opacity="1"><g transform="translate(285.663695, 135.112699)"><g><path d="M -0.34375 -11.859375 L 0.5 -15.578125 L 0.59375 -16.03125 L 7.828125 -16.03125 L 7.65625 -15.296875 L 6.6875 -11.109375 C 6.175781 -8.878906 6.003906 -7.332031 6.171875 -6.46875 C 6.234375 -6.132812 6.363281 -5.894531 6.5625 -5.75 C 6.757812 -5.613281 7.066406 -5.546875 7.484375 -5.546875 C 8.367188 -5.546875 9.019531 -5.84375 9.4375 -6.4375 C 9.507812 -6.550781 9.582031 -6.675781 9.65625 -6.8125 C 9.738281 -6.957031 9.820312 -7.113281 9.90625 -7.28125 C 9.988281 -7.457031 10.0625 -7.644531 10.125 -7.84375 C 10.195312 -8.039062 10.269531 -8.253906 10.34375 -8.484375 C 10.414062 -8.710938 10.488281 -8.957031 10.5625 -9.21875 C 10.632812 -9.476562 10.703125 -9.753906 10.765625 -10.046875 C 11.140625 -11.703125 11.175781 -13.128906 10.875 -14.328125 C 10.5625 -15.554688 9.90625 -16.851562 8.90625 -18.21875 L 6.5625 -21.390625 C 5.425781 -22.953125 4.640625 -24.578125 4.203125 -26.265625 C 3.742188 -27.972656 3.773438 -29.929688 4.296875 -32.140625 C 4.484375 -33.003906 4.710938 -33.820312 4.984375 -34.59375 C 5.253906 -35.375 5.550781 -36.09375 5.875 -36.75 C 6.195312 -37.414062 6.550781 -38.03125 6.9375 -38.59375 C 7.320312 -39.15625 7.742188 -39.65625 8.203125 -40.09375 C 10.035156 -41.875 12.648438 -42.765625 16.046875 -42.765625 C 19.566406 -42.765625 21.71875 -41.660156 22.5 -39.453125 C 23.226562 -37.378906 23.144531 -34.421875 22.25 -30.578125 L 21.65625 -27.984375 L 21.5625 -27.546875 L 14.5 -27.546875 L 14.671875 -28.28125 L 15.359375 -31.265625 C 15.578125 -32.222656 15.722656 -33.050781 15.796875 -33.75 C 15.878906 -34.457031 15.890625 -34.992188 15.828125 -35.359375 C 15.773438 -35.660156 15.664062 -35.875 15.5 -36 C 15.34375 -36.125 15.082031 -36.1875 14.71875 -36.1875 C 13.894531 -36.1875 13.253906 -35.914062 12.796875 -35.375 C 12.710938 -35.300781 12.628906 -35.203125 12.546875 -35.078125 C 12.472656 -34.960938 12.398438 -34.84375 12.328125 -34.71875 C 12.265625 -34.59375 12.195312 -34.453125 12.125 -34.296875 C 12.050781 -34.148438 11.984375 -33.988281 11.921875 -33.8125 C 11.859375 -33.644531 11.796875 -33.460938 11.734375 -33.265625 C 11.679688 -33.078125 11.632812 -32.875 11.59375 -32.65625 C 11.300781 -31.4375 11.269531 -30.488281 11.5 -29.8125 C 11.75 -29.070312 12.285156 -28.109375 13.109375 -26.921875 L 15.703125 -23.203125 C 15.910156 -22.890625 16.113281 -22.570312 16.3125 -22.25 C 16.507812 -21.925781 16.691406 -21.601562 16.859375 -21.28125 C 17.035156 -20.957031 17.195312 -20.632812 17.34375 -20.3125 C 17.5 -19.988281 17.640625 -19.660156 17.765625 -19.328125 C 17.890625 -18.992188 18 -18.664062 18.09375 -18.34375 C 18.195312 -18.019531 18.285156 -17.691406 18.359375 -17.359375 C 18.835938 -15.347656 18.800781 -13.171875 18.25 -10.828125 C 17.789062 -8.835938 17.21875 -7.097656 16.53125 -5.609375 C 15.851562 -4.128906 15.054688 -2.898438 14.140625 -1.921875 C 12.273438 0.0664062 9.625 1.0625 6.1875 1.0625 C 2.632812 1.0625 0.410156 -0.0976562 -0.484375 -2.421875 C -1.335938 -4.609375 -1.289062 -7.753906 -0.34375 -11.859375 Z M -0.34375 -11.859375 "/></g></g></g><g fill="#f3ce18" fill-opacity="1"><g transform="translate(137.472783, 71.800959)"><g><path d="M -2.375 -0.15625 L 7.90625 -44.671875 L 8 -45.15625 L 18.734375 -45.15625 C 22.472656 -45.15625 24.789062 -43.96875 25.6875 -41.59375 C 25.789062 -41.34375 25.878906 -41.078125 25.953125 -40.796875 C 26.023438 -40.515625 26.085938 -40.222656 26.140625 -39.921875 C 26.191406 -39.617188 26.226562 -39.304688 26.25 -38.984375 C 26.28125 -38.660156 26.296875 -38.320312 26.296875 -37.96875 C 26.304688 -37.613281 26.300781 -37.25 26.28125 -36.875 C 26.269531 -36.507812 26.242188 -36.128906 26.203125 -35.734375 C 26.160156 -35.335938 26.109375 -34.925781 26.046875 -34.5 C 25.992188 -34.082031 25.921875 -33.648438 25.828125 -33.203125 C 25.742188 -32.753906 25.65625 -32.296875 25.5625 -31.828125 L 25.328125 -30.890625 C 24.296875 -26.390625 22.863281 -22.957031 21.03125 -20.59375 C 20.070312 -19.375 18.894531 -18.457031 17.5 -17.84375 C 16.101562 -17.226562 14.515625 -16.921875 12.734375 -16.921875 L 9.5625 -16.921875 L 5.625 0.15625 L 5.515625 0.625 L -2.546875 0.625 Z M 11.140625 -23.78125 L 12.6875 -23.78125 C 12.863281 -23.78125 13.03125 -23.785156 13.1875 -23.796875 C 13.351562 -23.816406 13.507812 -23.84375 13.65625 -23.875 C 13.800781 -23.914062 13.941406 -23.960938 14.078125 -24.015625 C 14.210938 -24.078125 14.332031 -24.144531 14.4375 -24.21875 C 14.550781 -24.300781 14.660156 -24.382812 14.765625 -24.46875 C 14.878906 -24.5625 14.976562 -24.660156 15.0625 -24.765625 C 15.144531 -24.878906 15.226562 -25.003906 15.3125 -25.140625 C 15.96875 -26.191406 16.648438 -28.234375 17.359375 -31.265625 L 17.5625 -32.125 C 18.132812 -34.675781 18.328125 -36.472656 18.140625 -37.515625 C 18.078125 -37.921875 17.921875 -38.21875 17.671875 -38.40625 C 17.429688 -38.59375 17.03125 -38.6875 16.46875 -38.6875 L 14.609375 -38.6875 Z M 11.140625 -23.78125 "/></g></g></g><g fill="#f3ce18" fill-opacity="1"><g transform="translate(163.944451, 71.800959)"><g><path d="M 12 -20.296875 L 10.375 -20.359375 L 5.625 0.15625 L 5.515625 0.625 L -2.546875 0.625 L -2.375 -0.15625 L 7.90625 -44.671875 L 8 -45.15625 L 19.71875 -45.15625 C 22.207031 -45.15625 23.984375 -44.625 25.046875 -43.5625 C 26.109375 -42.5 26.625 -41.039062 26.59375 -39.1875 C 26.59375 -38.9375 26.582031 -38.675781 26.5625 -38.40625 C 26.550781 -38.132812 26.53125 -37.851562 26.5 -37.5625 C 26.476562 -37.28125 26.445312 -36.984375 26.40625 -36.671875 C 26.363281 -36.359375 26.316406 -36.035156 26.265625 -35.703125 C 26.210938 -35.378906 26.148438 -35.039062 26.078125 -34.6875 C 26.015625 -34.34375 25.941406 -33.984375 25.859375 -33.609375 C 25.773438 -33.242188 25.691406 -32.867188 25.609375 -32.484375 C 25.285156 -31.097656 24.925781 -29.875 24.53125 -28.8125 C 24.132812 -27.75 23.703125 -26.847656 23.234375 -26.109375 C 22.535156 -24.992188 21.625 -24.140625 20.5 -23.546875 C 20.914062 -23.234375 21.242188 -22.816406 21.484375 -22.296875 C 21.734375 -21.785156 21.894531 -21.203125 21.96875 -20.546875 C 22.019531 -20.023438 22.023438 -19.410156 21.984375 -18.703125 C 21.941406 -18.003906 21.847656 -17.171875 21.703125 -16.203125 C 21.554688 -15.234375 21.363281 -14.160156 21.125 -12.984375 C 20.894531 -11.816406 20.609375 -10.507812 20.265625 -9.0625 C 19.035156 -3.675781 18.421875 -0.679688 18.421875 -0.078125 L 18.53125 0.625 L 10.53125 0.625 L 10.40625 0.171875 C 10.300781 -0.140625 10.414062 -1.09375 10.75 -2.6875 C 11.09375 -4.28125 11.757812 -7.195312 12.75 -11.4375 C 13.207031 -13.425781 13.570312 -14.984375 13.84375 -16.109375 C 14.039062 -17.003906 14.15625 -17.785156 14.1875 -18.453125 C 14.226562 -19.117188 14.191406 -19.503906 14.078125 -19.609375 C 13.859375 -20.023438 13.164062 -20.253906 12 -20.296875 Z M 11.890625 -26.921875 L 13.8125 -26.921875 C 14.519531 -26.921875 15.070312 -27.070312 15.46875 -27.375 C 15.601562 -27.457031 15.726562 -27.578125 15.84375 -27.734375 C 15.957031 -27.898438 16.078125 -28.09375 16.203125 -28.3125 C 16.335938 -28.539062 16.460938 -28.800781 16.578125 -29.09375 C 16.765625 -29.550781 16.957031 -30.132812 17.15625 -30.84375 C 17.363281 -31.550781 17.582031 -32.375 17.8125 -33.3125 L 17.84375 -33.578125 L 17.859375 -33.59375 L 17.859375 -33.625 C 18.390625 -35.914062 18.5625 -37.382812 18.375 -38.03125 C 18.300781 -38.207031 18.117188 -38.359375 17.828125 -38.484375 C 17.535156 -38.617188 17.066406 -38.6875 16.421875 -38.6875 L 14.625 -38.6875 Z M 11.890625 -26.921875 "/></g></g></g><g fill="#f3ce18" fill-opacity="1"><g transform="translate(192.085776, 71.800959)"><g><path d="M 7.3125 -7.015625 C 7.351562 -6.773438 7.421875 -6.582031 7.515625 -6.4375 C 7.617188 -6.289062 7.769531 -6.179688 7.96875 -6.109375 C 8.175781 -6.035156 8.445312 -6 8.78125 -6 C 9.78125 -6 10.53125 -6.421875 11.03125 -7.265625 C 11.132812 -7.429688 11.234375 -7.613281 11.328125 -7.8125 C 11.421875 -8.019531 11.515625 -8.242188 11.609375 -8.484375 C 11.710938 -8.734375 11.8125 -9.003906 11.90625 -9.296875 C 12 -9.585938 12.097656 -9.898438 12.203125 -10.234375 C 12.304688 -10.566406 12.40625 -10.925781 12.5 -11.3125 C 12.601562 -11.695312 12.707031 -12.097656 12.8125 -12.515625 L 17.59375 -33.265625 C 18.039062 -35.285156 18.191406 -36.738281 18.046875 -37.625 C 17.972656 -37.957031 17.835938 -38.195312 17.640625 -38.34375 C 17.453125 -38.488281 17.128906 -38.5625 16.671875 -38.5625 C 15.734375 -38.5625 14.984375 -38.160156 14.421875 -37.359375 C 14.117188 -36.921875 13.820312 -36.335938 13.53125 -35.609375 C 13.25 -34.878906 12.988281 -34.003906 12.75 -32.984375 L 7.96875 -12.21875 C 7.382812 -9.6875 7.164062 -7.953125 7.3125 -7.015625 Z M 16.125 -2.28125 C 13.945312 0 11.0625 1.140625 7.46875 1.140625 C 3.789062 1.140625 1.34375 -0.046875 0.125 -2.421875 C -1.03125 -4.722656 -1.09375 -8.113281 -0.0625 -12.59375 L 4.640625 -32.96875 C 5.597656 -37.144531 7.203125 -40.304688 9.453125 -42.453125 C 11.703125 -44.609375 14.570312 -45.6875 18.0625 -45.6875 C 19.875 -45.6875 21.394531 -45.398438 22.625 -44.828125 C 23.851562 -44.253906 24.753906 -43.382812 25.328125 -42.21875 C 26.421875 -40.007812 26.488281 -36.820312 25.53125 -32.65625 L 20.828125 -12.296875 C 20.316406 -10.085938 19.671875 -8.144531 18.890625 -6.46875 C 18.109375 -4.789062 17.1875 -3.394531 16.125 -2.28125 Z M 16.125 -2.28125 "/></g></g></g><g fill="#f3ce18" fill-opacity="1"><g transform="translate(219.948822, 71.800959)"><g><path d="M 13.640625 -2 C 11.460938 0.09375 8.832031 1.140625 5.75 1.140625 C 2.625 1.140625 0.394531 0.171875 -0.9375 -1.765625 C -2.25 -3.691406 -2.488281 -6.4375 -1.65625 -10 L 0.15625 -17.9375 L 0.265625 -18.421875 L 8.109375 -18.421875 L 7.921875 -17.640625 L 6.171875 -10.015625 C 6.003906 -9.242188 5.898438 -8.5625 5.859375 -7.96875 C 5.816406 -7.375 5.820312 -6.941406 5.875 -6.671875 C 5.9375 -6.410156 6.019531 -6.242188 6.125 -6.171875 C 6.3125 -6.015625 6.59375 -5.9375 6.96875 -5.9375 C 7.382812 -5.9375 7.734375 -6.015625 8.015625 -6.171875 C 8.296875 -6.328125 8.546875 -6.570312 8.765625 -6.90625 C 9.253906 -7.695312 9.695312 -8.972656 10.09375 -10.734375 L 17.921875 -44.671875 L 18.015625 -45.15625 L 26.09375 -45.15625 L 25.90625 -44.375 L 18.171875 -10.75 C 17.304688 -6.988281 15.796875 -4.070312 13.640625 -2 Z M 13.640625 -2 "/></g></g></g><g fill="#f3ce18" fill-opacity="1"><g transform="translate(245.863942, 71.800959)"><g><path d="M -2.375 -0.15625 L 7.90625 -44.671875 L 8 -45.15625 L 24.21875 -45.15625 L 24.046875 -44.375 L 22.703125 -38.53125 L 22.59375 -38.046875 L 14.453125 -38.046875 L 11.75 -26.359375 L 19.515625 -26.359375 L 19.3125 -25.578125 L 17.96875 -19.859375 L 17.859375 -19.375 L 10.125 -19.375 L 7.140625 -6.484375 L 15.59375 -6.484375 L 15.40625 -5.6875 L 14.078125 0.15625 L 13.96875 0.625 L -2.546875 0.625 Z M -2.375 -0.15625 "/></g></g></g><g fill="#f3ce18" fill-opacity="1"><g transform="translate(269.09749, 71.800959)"><g><path d="M 15.765625 -2.15625 C 13.640625 0.0390625 10.84375 1.140625 7.375 1.140625 C 3.832031 1.140625 1.4375 -0.0703125 0.1875 -2.5 C -1 -4.84375 -1.09375 -8.160156 -0.09375 -12.453125 L 4.375 -31.84375 C 5.945312 -38.675781 8.757812 -42.960938 12.8125 -44.703125 C 14.320312 -45.347656 16.03125 -45.671875 17.9375 -45.671875 C 18.914062 -45.671875 19.800781 -45.578125 20.59375 -45.390625 C 22.957031 -44.847656 24.519531 -43.503906 25.28125 -41.359375 C 26.050781 -39.222656 26.023438 -36.453125 25.203125 -33.046875 L 23.78125 -26.921875 L 23.6875 -26.4375 L 15.84375 -26.4375 L 16.015625 -27.21875 L 17.328125 -32.921875 C 17.835938 -35.128906 18.015625 -36.675781 17.859375 -37.5625 C 17.796875 -37.914062 17.671875 -38.164062 17.484375 -38.3125 C 17.296875 -38.457031 16.984375 -38.53125 16.546875 -38.53125 C 15.648438 -38.53125 14.925781 -38.097656 14.375 -37.234375 C 14.070312 -36.765625 13.773438 -36.140625 13.484375 -35.359375 C 13.203125 -34.585938 12.9375 -33.679688 12.6875 -32.640625 L 7.875 -11.84375 C 7.351562 -9.53125 7.175781 -7.898438 7.34375 -6.953125 C 7.40625 -6.585938 7.535156 -6.328125 7.734375 -6.171875 C 7.929688 -6.015625 8.238281 -5.9375 8.65625 -5.9375 C 9.53125 -5.9375 10.238281 -6.359375 10.78125 -7.203125 C 10.894531 -7.410156 11.015625 -7.632812 11.140625 -7.875 C 11.273438 -8.125 11.398438 -8.398438 11.515625 -8.703125 C 11.628906 -9.003906 11.742188 -9.335938 11.859375 -9.703125 C 11.984375 -10.066406 12.097656 -10.457031 12.203125 -10.875 C 12.316406 -11.300781 12.429688 -11.75 12.546875 -12.21875 L 14.015625 -18.59375 L 14.125 -19.078125 L 22.0625 -19.078125 L 21.890625 -18.296875 L 20.453125 -11.984375 C 19.429688 -7.585938 17.867188 -4.3125 15.765625 -2.15625 Z M 15.765625 -2.15625 "/></g></g></g><g fill="#f3ce18" fill-opacity="1"><g transform="translate(295.999226, 71.800959)"><g><path d="M -0.09375 -0.15625 L 8.65625 -38.03125 L 3.453125 -38.03125 L 3.625 -38.8125 L 4.96875 -44.671875 L 5.0625 -45.15625 L 23.328125 -45.15625 L 23.15625 -44.375 L 21.8125 -38.5 L 21.71875 -38.03125 L 16.703125 -38.03125 L 7.875 0.15625 L 7.765625 0.625 L -0.265625 0.625 Z M -0.09375 -0.15625 "/></g></g></g></svg>